<svg width="104" height="40" viewBox="0 0 104 40" fill="none" xmlns="http://www.w3.org/2000/svg">
<g clip-path="url(#clip0_425_2255)">
<path fill-rule="evenodd" clip-rule="evenodd" d="M18.9091 9.3479C18.9091 14.5106 14.6761 18.6958 9.45454 18.6958C9.25608 18.6958 9.05906 18.6898 8.86363 18.6778V12.0537C9.05368 12.0968 9.25145 12.1196 9.45454 12.1196C10.9231 12.1196 12.1136 10.9285 12.1136 9.45919C12.1136 7.98989 10.9231 6.79879 9.45454 6.79879C7.98597 6.79879 6.79545 7.98989 6.79545 9.45919V18.321V18.6958V24.8304H0V9.3479C0 4.1852 4.23294 0 9.45454 0C14.6761 0 18.9091 4.1852 18.9091 9.3479Z" fill="#FF2400"/>
<path fill-rule="evenodd" clip-rule="evenodd" d="M104 9.3479C104 14.5106 99.767 18.6958 94.5454 18.6958C94.3469 18.6958 94.1499 18.6898 93.9545 18.6778V12.0537C94.1445 12.0968 94.3423 12.1196 94.5454 12.1196C96.0139 12.1196 97.2044 10.9285 97.2044 9.45918C97.2044 7.98989 96.0139 6.79879 94.5454 6.79879C93.0768 6.79879 91.8863 7.98989 91.8863 9.45918V18.321V18.6958V24.8304H85.0908V9.3479C85.0908 4.1852 89.3238 0 94.5454 0C99.767 0 104 4.1852 104 9.3479Z" fill="#FF2400"/>
<path d="M27.7725 3.3994C27.7725 4.29217 27.4096 5.18494 26.7829 5.80301C26.1561 6.45542 25.2984 6.79879 24.3748 6.79879C23.4841 6.79879 22.6264 6.45542 21.9667 5.80301C21.3399 5.1506 20.9771 4.29217 20.9771 3.3994C20.9771 2.50663 21.3399 1.61386 21.9667 0.99579C22.5934 0.343381 23.4511 0 24.3748 0C25.2654 0 26.1231 0.343381 26.7829 0.99579C27.4096 1.61386 27.7725 2.50663 27.7725 3.3994Z" fill="#FF2400"/>
<path d="M27.7725 8.57239H20.9771V24.8304H27.7725V8.57239Z" fill="#FF2400"/>
<path d="M62.0456 15.6668V8.86798H50.8184V15.6668H62.0456Z" fill="#FF2400"/>
<path fill-rule="evenodd" clip-rule="evenodd" d="M48.7499 24.8304V9.36688C48.7499 4.19312 44.5022 0 39.3296 0C34.0885 0 29.8408 4.19312 29.8408 9.36688V24.8304H36.6363V18.3956V9.60359V9.56978C36.6363 9.55171 36.6365 9.53364 36.6369 9.51557C36.6365 9.49682 36.6363 9.47803 36.6363 9.45918C36.6363 7.98989 37.8268 6.79879 39.2954 6.79879C40.7639 6.79879 41.9545 7.98989 41.9545 9.45918C41.9545 9.47803 41.9543 9.49681 41.9539 9.51557C41.9543 9.53363 41.9545 9.5517 41.9545 9.56978V24.8304H48.7499Z" fill="#FF2400"/>
<path fill-rule="evenodd" clip-rule="evenodd" d="M83.0229 0.295605V15.4635C83.0229 20.6373 78.7752 24.8304 73.6026 24.8304C68.3615 24.8304 64.1138 20.6373 64.1138 15.4635V0.295605H70.9092V6.43478V15.2268V15.2606C70.9092 15.2787 70.9094 15.2967 70.9098 15.3148C70.9094 15.3336 70.9092 15.3524 70.9092 15.3712C70.9092 16.8405 72.0997 18.0316 73.5683 18.0316C75.0369 18.0316 76.2274 16.8405 76.2274 15.3712C76.2274 15.3524 76.2272 15.3336 76.2268 15.3148C76.2272 15.2967 76.2274 15.2787 76.2274 15.2606V0.295605H83.0229Z" fill="#FF2400"/>
<path fill-rule="evenodd" clip-rule="evenodd" d="M98.0205 28.0352H52.0948H5.97946H0V34.0176C0 37.3216 2.6771 40 5.97946 40L5.98839 40H98.0116L98.0205 40C101.323 40 104 37.3216 104 34.0176V28.0352H98.0205ZM32.9878 34.0395C32.9878 33.9583 32.9811 33.8805 32.9675 33.8061H29.8039V34.8714H31.8521C31.7643 35.3786 31.5581 35.7743 31.2336 36.0583C30.9159 36.3356 30.4866 36.4743 29.9458 36.4743C29.6349 36.4743 29.3476 36.4168 29.0839 36.3018C28.827 36.1868 28.604 36.0279 28.4147 35.825C28.2322 35.6153 28.0902 35.3719 27.9888 35.0946C27.8874 34.8105 27.8367 34.5028 27.8367 34.1714C27.8367 33.84 27.8874 33.5322 27.9888 33.2482C28.097 32.9641 28.2423 32.7206 28.4248 32.5177C28.6141 32.3148 28.8372 32.1559 29.0941 32.0409C29.3577 31.9259 29.645 31.8685 29.956 31.8685C30.3345 31.8685 30.6691 31.953 30.9598 32.1221C31.2505 32.2912 31.477 32.511 31.6392 32.7815L32.5619 32.1322C32.3051 31.7264 31.9569 31.3984 31.5175 31.1482C31.0849 30.8912 30.5644 30.7626 29.956 30.7626C29.4692 30.7626 29.0197 30.8506 28.6073 31.0264C28.2017 31.1955 27.8502 31.4322 27.5528 31.7366C27.2621 32.0409 27.0323 32.4028 26.8633 32.8221C26.701 33.2346 26.6199 33.6844 26.6199 34.1714C26.6199 34.6583 26.6976 35.1115 26.8531 35.5308C27.0086 35.9434 27.2283 36.3018 27.5122 36.6062C27.8029 36.9105 28.151 37.1506 28.5566 37.3265C28.969 37.4955 29.4321 37.5801 29.9458 37.5801C30.419 37.5801 30.8449 37.5023 31.2235 37.3467C31.602 37.1844 31.9231 36.9612 32.1868 36.6772C32.4504 36.3931 32.6498 36.0549 32.785 35.6627C32.927 35.2636 32.998 34.824 32.998 34.3438C32.998 34.2153 32.9946 34.1139 32.9878 34.0395ZM41.1919 37.4583V36.312H38.4743V30.9047H37.2271V37.4583H41.1919ZM48.1111 37.5801C47.5974 37.5801 47.1343 37.4922 46.722 37.3163C46.3096 37.1405 45.9581 36.9004 45.6674 36.596C45.3767 36.2917 45.1537 35.9332 44.9982 35.5206C44.8427 35.1013 44.765 34.6516 44.765 34.1714C44.765 33.6979 44.8461 33.2549 45.0083 32.8424C45.1773 32.423 45.4105 32.0612 45.708 31.7569C46.0054 31.4457 46.3569 31.2023 46.7625 31.0264C47.1749 30.8506 47.6244 30.7626 48.1111 30.7626C48.6249 30.7626 49.088 30.8506 49.5003 31.0264C49.9194 31.2023 50.2743 31.4457 50.565 31.7569C50.8557 32.0612 51.0788 32.423 51.2343 32.8424C51.3898 33.2549 51.4675 33.6979 51.4675 34.1714C51.4675 34.6516 51.383 35.1013 51.214 35.5206C51.0518 35.9332 50.8219 36.2917 50.5245 36.596C50.227 36.9004 49.8721 37.1405 49.4598 37.3163C49.0474 37.4922 48.5979 37.5801 48.1111 37.5801ZM48.1111 36.454C48.4289 36.454 48.7162 36.3965 48.973 36.2815C49.2367 36.1598 49.4598 35.9975 49.6423 35.7946C49.8248 35.5917 49.9668 35.3516 50.0682 35.0743C50.1696 34.797 50.2203 34.496 50.2203 34.1714C50.2203 33.8467 50.1696 33.5458 50.0682 33.2685C49.9668 32.9912 49.8248 32.7511 49.6423 32.5482C49.4598 32.3453 49.2367 32.1863 48.973 32.0714C48.7162 31.9496 48.4289 31.8887 48.1111 31.8887C47.7934 31.8887 47.5061 31.9496 47.2493 32.0714C46.9924 32.1863 46.7727 32.3453 46.5902 32.5482C46.4076 32.7511 46.2657 32.9912 46.1643 33.2685C46.0629 33.5458 46.0122 33.8467 46.0122 34.1714C46.0122 34.496 46.0629 34.797 46.1643 35.0743C46.2657 35.3516 46.4076 35.5917 46.5902 35.7946C46.7727 35.9975 46.9924 36.1598 47.2493 36.2815C47.5061 36.3965 47.7934 36.454 48.1111 36.454ZM59.7236 34.4859C59.5005 34.2153 59.2065 34.0293 58.8414 33.9279C59.0983 33.7926 59.2943 33.6168 59.4295 33.4003C59.5647 33.1839 59.6323 32.9201 59.6323 32.609V32.5685C59.6323 32.0409 59.4532 31.6317 59.0949 31.3409C58.7434 31.0501 58.233 30.9047 57.5638 30.9047H55.7386V37.4583H57.6449C58.4426 37.4583 59.0442 37.2926 59.4498 36.9612C59.8554 36.6231 60.0582 36.1564 60.0582 35.5612V35.5206C60.0582 35.0946 59.9467 34.7496 59.7236 34.4859ZM57.4522 33.6337H56.9351V31.8685H57.4522C58.1282 31.8685 58.4662 32.1491 58.4662 32.7105V32.7714C58.4662 33.0284 58.3817 33.238 58.2127 33.4003C58.0437 33.5559 57.7902 33.6337 57.4522 33.6337ZM58.5778 36.2511C58.3885 36.4134 58.0843 36.4946 57.6652 36.4946H56.9351V34.5975L57.7159 34.5873C58.1147 34.5873 58.4054 34.6752 58.5879 34.8511C58.7704 35.0269 58.8617 35.2569 58.8617 35.5409C58.8617 35.8453 58.767 36.082 58.5778 36.2511ZM67.9871 36.038H65.3203L64.7525 37.4583H63.4951L66.3749 30.7931H66.9224L69.8326 37.4583H68.555L67.9871 36.038ZM67.5714 35.0033L66.6588 32.6902L65.7361 35.0033H67.5714ZM77.6602 37.4583V36.312H74.9427V30.9047H73.6955V37.4583H77.6602Z" fill="#00CFA6"/>
</g>
<defs>
<clipPath id="clip0_425_2255">
<rect width="104" height="40" fill="white"/>
</clipPath>
</defs>
</svg>
